<?xml version="1.0" encoding="utf-8"?>
<!-- Generator: Adobe Illustrator 19.0.0, SVG Export Plug-In . SVG Version: 6.00 Build 0)  -->
<svg version="1.1"
	 id="Layer_1" xmlns:dc="http://purl.org/dc/elements/1.1/" xmlns:svg="http://www.w3.org/2000/svg" xmlns:rdf="http://www.w3.org/1999/02/22-rdf-syntax-ns#" xmlns:cc="http://creativecommons.org/ns#"
	 xmlns="http://www.w3.org/2000/svg" xmlns:xlink="http://www.w3.org/1999/xlink" x="0px" y="0px" viewBox="61 -65.6 270 259.2"
	 style="enable-background:new 61 -65.6 270 259.2;" xml:space="preserve">
<g transform="matrix(5,0,0,5,-2905,-10432.031)">
	<path d="M621.9,2073.3c-5,0-9.8,1.3-14.2,3.9c-4.4,2.6-7.9,6.1-10.6,10.5c-2.6,4.3-3.9,9-3.9,13.9c0,6.7,2.5,12.3,7.3,16.8
		c4.9,4.5,11.4,6.8,19.5,6.8c5.3,0,10-1,13.9-2.7c1.2-0.5,1.9-1.9,1.4-3.2s-1.9-1.9-3.1-1.4c-3.6,1.6-7.6,2.4-12.1,2.4
		c-3.5,0-6.9-0.8-10-2.3c-3.2-1.5-5.8-3.8-7.9-6.7c-2-2.9-3-6.2-3-9.8c0-3.8,1-7.4,2.9-10.9c2-3.5,4.7-6.4,8.2-8.7
		c3.5-2.3,7.3-3.4,11.3-3.4c5.2,0,9.8,1.7,13.9,5.1c4.1,3.4,6.1,7.4,6.1,11.8c0,3.6-1,6.7-3.1,9.4c-2,2.7-4,4-6.1,4
		c-1.9,0-2.8-0.9-2.8-2.8c0-0.5,0.1-1.3,0.4-2.3l3.8-13.7c0.4-1.5-0.5-2.8-2-2.8s-3,1.2-3.4,2.8l-0.2,0.9c-0.7-1.5-1.5-2.6-2.6-3.2
		c-1-0.7-2.3-1-3.9-1c-2.7,0-5.2,0.7-7.3,2.1c-2.1,1.4-4.5,3.9-5.7,6.3c-1.6,3.2-2,5.3-2.1,8.7c0,2.8,0.9,5.2,2.8,7.1
		c1.9,2,4.2,2.9,6.8,2.9c3.5,0,6.4-1.4,8.8-4.3c0.4,1.3,1.2,2.3,2.5,3.1c1.3,0.8,2.9,1.2,4.8,1.2c1.6,0,3.2-0.4,4.9-1.2
		c1.7-0.8,3.3-2,4.8-3.4c1.5-1.4,2.7-3.3,3.7-5.6c0.9-2.3,1.4-4.7,1.4-7.3c0-6.9-2.4-12.5-7.1-16.6
		C635.4,2075.4,629.3,2073.3,621.9,2073.3z M621.6,2091c1.5,0,2.7,0.5,3.5,1.5c0.8,1,1.2,2.4,1.2,4.3c0,2.6-0.8,5.3-2.6,8
		c-1.7,2.7-3.8,4.1-6.1,4.1c-1.4,0-2.6-0.6-3.5-1.7c-0.9-1.1-1.3-2.6-1.3-4.4c0-3,0.9-5.7,2.7-8.1
		C617.3,2092.2,619.3,2091,621.6,2091z"/>
</g>
</svg>
