<?xml version="1.0" encoding="utf-8"?>
<!-- Generator: Adobe Illustrator 19.0.0, SVG Export Plug-In . SVG Version: 6.00 Build 0)  -->
<svg version="1.1" id="Layer_1" xmlns="http://www.w3.org/2000/svg" xmlns:xlink="http://www.w3.org/1999/xlink" x="0px" y="0px"
	 viewBox="-98.4 43.7 60.6 76.7" style="enable-background:new -98.4 43.7 60.6 76.7;" xml:space="preserve">
<g>
	<path d="M-44.4,43.7h-47.4c-3.6,0-6.6,3-6.6,6.6v63.4c0,3.6,3,6.6,6.6,6.6h47.4c3.6,0,6.6-3,6.6-6.6V50.3
		C-37.7,46.6-40.6,43.7-44.4,43.7z M-38.6,113.7c0,3.1-2.6,5.7-5.7,5.7h-47.4c-3.1,0-5.7-2.6-5.7-5.7V50.3c0-3.1,2.6-5.7,5.7-5.7
		h47.4c3.1,0,5.7,2.6,5.7,5.7V113.7z"/>
	<path d="M-74.8,77c2.2,0.4,4.7,0.4,6.8,0.4c4.9,0,10.6-0.3,11.6-3c0.3-0.8,0.2-2.1,0-2.6c-0.7-2.1-3.7-3.5-5.4-4.2
		c-0.1-0.1-0.3-0.1-0.4-0.2l-0.1-0.1c-0.9-0.3-2.3-0.9-2.5-1.6c-0.3-1.1,0.4-2,1.1-2.8c0.3-0.3,0.5-0.7,0.7-1
		c0.8-1.3,1.3-3.1,1.4-4.4c0.2-2.4-0.4-4.4-1.7-5.8c-1.1-1.2-2.7-1.9-4.6-1.9c-0.3,0-0.7,0-1,0.1c-3.1,0.4-5.2,2.6-5.4,6
		c-0.2,2.6,0.6,5,2.2,7.3c0.1,0.1,0.2,0.3,0.3,0.4c0.4,0.5,0.8,1,0.7,1.7c-0.1,0.9-1,1.3-1.8,1.6l-0.2,0.1c-0.9,0.4-1.9,0.9-2.4,1.2
		l-0.1,0.1c-1.7,1-3.6,2.1-4,3.7c-0.3,1.1-0.2,2,0.3,2.8C-78.5,76.1-76.3,76.7-74.8,77z"/>
	<path d="M-45.2,92.5h-45.6c-1,0-1.9,0.9-1.9,1.9s0.9,1.9,1.9,1.9h45.6c1,0,1.9-0.9,1.9-1.9S-44.2,92.5-45.2,92.5z"/>
	<path d="M-45.2,101.4h-45.6c-1,0-1.9,0.9-1.9,1.9s0.9,1.9,1.9,1.9h45.6c1,0,1.9-0.9,1.9-1.9S-44.2,101.4-45.2,101.4z"/>
	<path d="M-45.2,110.3h-45.6c-1,0-1.9,0.9-1.9,1.9s0.9,1.9,1.9,1.9h45.6c1,0,1.9-0.8,1.9-1.9S-44.2,110.3-45.2,110.3z"/>
</g>
</svg>
