<svg version="1.1" id="Layer_1" xmlns="http://www.w3.org/2000/svg" xmlns:xlink="http://www.w3.org/1999/xlink" x="0px" y="0px" viewBox="-48 34.7 69.9 60.8" style="enable-background:new -48 34.7 69.9 60.8;" xml:space="preserve">
<path d="M16.1,46.8H-0.1v-4.6c0-4.2-4.5-7.6-10-7.6h-6.1c-5.5,0-9.7,3.3-9.7,7.6v4.5h-15.7c-3.5,0-6.3,2.5-6.3,5.7v4.9v3.8v3.4
	c0,0.6,0.3,1.1,0.8,1.3c0.1,0.1,0.9,0.5,2.2,1.1V92c0,1.6,1.2,3.4,2.9,3.4h57.8c1.8,0,3.2-1.8,3.2-3.4V67.1c1.3-0.6,2.1-1.1,2.2-1.1
	c0.5-0.3,0.8-0.8,0.8-1.3v-3.4v-3.8v-4.9C22,49.2,19.5,46.8,16.1,46.8 M-22.9,42.3c0-2.5,3-4.6,6.7-4.6h6.1c3.7,0,7,2.1,7,4.6v4.5
	h-19.8V42.3z M15.9,92c0,0.1-0.1,0.3-0.2,0.4h-57.4c-0.1-0.1-0.1-0.2-0.1-0.4V68.5c5.1,2.2,13.4,5.3,22,6.5v1.4c0,1.7,1.4,3,3,3h7.6
	c1.7,0,3-1.4,3-3V75c8.7-1.2,16.9-4.3,22-6.5V92z M-16.8,76.5v-7.6h7.6l0,7.6H-16.8z M18.9,63.8c-3,1.5-13.8,6.6-25.1,8.2v-3.1
	c0-1.7-1.4-3-3-3h-7.6c-1.7,0-3,1.4-3,3V72c-11.3-1.6-22.1-6.7-25.1-8.2v-2.5v-3.8v-4.9c0-1.7,1.7-2.7,3.3-2.7h57.8
	c1.7,0,2.8,1,2.8,2.7v4.9v3.8L18.9,63.8L18.9,63.8z"/>
</svg>